<svg width="24" height="24" viewBox="0 0 24 24" fill="none" xmlns="http://www.w3.org/2000/svg">
<path d="M4.75761 10.035L10.5944 5.36554C11.4162 4.70815 12.5838 4.70815 13.4055 5.36554L19.2424 10.035C19.8276 10.5032 20.1413 11.232 20.079 11.9788L19.4089 20.0208C19.3981 20.1503 19.2897 20.25 19.1597 20.25H15.2748C15.1042 20.25 14.9837 20.0828 15.0377 19.9209L15.2906 19.1623C16.0961 16.7456 14.2973 14.25 11.75 14.25C9.20262 14.25 7.40386 16.7456 8.20941 19.1623L8.4623 19.9209C8.51626 20.0828 8.39577 20.25 8.22513 20.25H4.84025C4.71023 20.25 4.60191 20.1503 4.59111 20.0208L3.92095 11.9788C3.85871 11.232 4.17241 10.5032 4.75761 10.035ZM9.34503 3.8038L3.50822 8.47325C2.40283 9.35756 1.8103 10.7342 1.92786 12.1449L2.59802 20.1868C2.6952 21.353 3.67005 22.25 4.84025 22.25H8.22513C9.76088 22.25 10.8453 20.7454 10.3597 19.2885L10.1068 18.5298C9.73292 17.4082 10.5677 16.25 11.75 16.25C12.9322 16.25 13.767 17.4082 13.3932 18.5298L13.1403 19.2885C12.6546 20.7454 13.7391 22.25 15.2748 22.25H19.1597C20.3299 22.25 21.3048 21.353 21.4019 20.1869L22.0721 12.1449C22.1897 10.7342 21.5971 9.35756 20.4917 8.47325L14.6549 3.80381C13.1028 2.56206 10.8972 2.56206 9.34503 3.8038Z" fill="black" stroke="black" stroke-width="0.5" stroke-linecap="round" stroke-linejoin="round"/>
</svg>
