<svg width="25" height="17" viewBox="0 0 25 17" fill="none" xmlns="http://www.w3.org/2000/svg">
<path d="M14.996 4C14.9667 4 14.9427 3.99067 14.924 3.972C14.9053 3.95333 14.896 3.92933 14.896 3.9V1.828H14.184C14.1547 1.828 14.1307 1.81867 14.112 1.8C14.0933 1.77867 14.084 1.75467 14.084 1.728V1.3C14.084 1.27067 14.0933 1.24667 14.112 1.228C14.1307 1.20933 14.1547 1.2 14.184 1.2H16.336C16.3653 1.2 16.3893 1.20933 16.408 1.228C16.4267 1.24667 16.436 1.27067 16.436 1.3V1.728C16.436 1.75467 16.4267 1.77867 16.408 1.8C16.3893 1.81867 16.3653 1.828 16.336 1.828H15.624V3.9C15.624 3.92933 15.6147 3.95333 15.596 3.972C15.5773 3.99067 15.5533 4 15.524 4H14.996ZM16.8995 4C16.8702 4 16.8462 3.99067 16.8275 3.972C16.8089 3.95333 16.7995 3.92933 16.7995 3.9V1.3C16.7995 1.27067 16.8089 1.24667 16.8275 1.228C16.8462 1.20933 16.8702 1.2 16.8995 1.2H18.7675C18.7969 1.2 18.8209 1.20933 18.8395 1.228C18.8582 1.24667 18.8675 1.27067 18.8675 1.3V1.676C18.8675 1.70533 18.8582 1.72933 18.8395 1.748C18.8209 1.76667 18.7969 1.776 18.7675 1.776H17.4915V2.316H18.6795C18.7089 2.316 18.7329 2.32667 18.7515 2.348C18.7702 2.36667 18.7795 2.39067 18.7795 2.42V2.768C18.7795 2.79467 18.7702 2.81867 18.7515 2.84C18.7329 2.85867 18.7089 2.868 18.6795 2.868H17.4915V3.424H18.7995C18.8289 3.424 18.8529 3.43333 18.8715 3.452C18.8902 3.47067 18.8995 3.49467 18.8995 3.524V3.9C18.8995 3.92933 18.8902 3.95333 18.8715 3.972C18.8529 3.99067 18.8289 4 18.7995 4H16.8995ZM19.2062 4C19.1822 4 19.1609 3.992 19.1422 3.976C19.1262 3.95733 19.1182 3.93733 19.1182 3.916C19.1182 3.908 19.1196 3.9 19.1222 3.892C19.1249 3.884 19.1289 3.876 19.1342 3.868L20.0062 2.572L19.1982 1.332C19.1902 1.316 19.1862 1.3 19.1862 1.284C19.1862 1.26267 19.1942 1.244 19.2102 1.228C19.2262 1.20933 19.2462 1.2 19.2702 1.2H19.8502C19.8902 1.2 19.9209 1.21067 19.9422 1.232C19.9636 1.25067 19.9782 1.268 19.9862 1.284L20.4662 2.012L20.9502 1.284C20.9609 1.268 20.9769 1.25067 20.9982 1.232C21.0196 1.21067 21.0502 1.2 21.0902 1.2H21.6382C21.6622 1.2 21.6822 1.20933 21.6982 1.228C21.7169 1.244 21.7262 1.26267 21.7262 1.284C21.7262 1.30267 21.7209 1.31867 21.7102 1.332L20.8982 2.568L21.7782 3.868C21.7836 3.876 21.7862 3.884 21.7862 3.892C21.7889 3.9 21.7902 3.908 21.7902 3.916C21.7902 3.93733 21.7822 3.95733 21.7662 3.976C21.7502 3.992 21.7302 4 21.7062 4H21.1102C21.0702 4 21.0382 3.99067 21.0142 3.972C20.9929 3.95067 20.9782 3.93333 20.9702 3.92L20.4382 3.152L19.9182 3.92C19.9102 3.93333 19.8956 3.95067 19.8742 3.972C19.8529 3.99067 19.8222 4 19.7822 4H19.2062ZM22.8319 4C22.8026 4 22.7786 3.99067 22.7599 3.972C22.7413 3.95333 22.7319 3.92933 22.7319 3.9V1.828H22.0199C21.9906 1.828 21.9666 1.81867 21.9479 1.8C21.9293 1.77867 21.9199 1.75467 21.9199 1.728V1.3C21.9199 1.27067 21.9293 1.24667 21.9479 1.228C21.9666 1.20933 21.9906 1.2 22.0199 1.2H24.1719C24.2013 1.2 24.2253 1.20933 24.2439 1.228C24.2626 1.24667 24.2719 1.27067 24.2719 1.3V1.728C24.2719 1.75467 24.2626 1.77867 24.2439 1.8C24.2253 1.81867 24.2013 1.828 24.1719 1.828H23.4599V3.9C23.4599 3.92933 23.4506 3.95333 23.4319 3.972C23.4133 3.99067 23.3893 4 23.3599 4H22.8319Z" fill="black"/>
<path d="M17.4816 14.8591C17.5975 14.7932 17.6822 14.6838 17.717 14.5552C17.7519 14.4265 17.7339 14.2893 17.6671 14.174L13.9179 7.69801C13.3645 6.74217 11.9511 6.85115 11.5508 7.88052L10.4472 10.7183C9.87718 12.1841 7.87121 12.3546 7.06199 11.0059C6.54895 10.1508 5.32955 10.0969 4.74304 10.9034L2.38599 14.1443C2.30171 14.2602 2.2712 14.4067 2.3022 14.5466C2.3332 14.6865 2.42273 14.8063 2.54808 14.8758C2.97878 15.1144 3.4743 15.25 4 15.25H16C16.5379 15.25 17.0441 15.108 17.4816 14.8591ZM1.29245 13.5433C1.36847 13.7022 1.5225 13.8094 1.69792 13.8255C1.87333 13.8415 2.04426 13.7641 2.14787 13.6216L4.33867 10.6093C5.13589 9.5131 6.79338 9.58639 7.49074 10.7486C8.08608 11.7409 9.56185 11.6155 9.98125 10.537L11.0848 7.69929C11.6371 6.2791 13.5871 6.12875 14.3506 7.44749L17.8574 13.5047C17.9518 13.6678 18.1298 13.7639 18.3179 13.7535C18.5059 13.743 18.6722 13.6277 18.7479 13.4553C18.9102 13.0858 19 12.6777 19 12.25V5C19 4.86193 19.1119 4.75 19.25 4.75C19.3881 4.75 19.5 4.86193 19.5 5V12.25C19.5 14.183 17.933 15.75 16 15.75H4C2.067 15.75 0.5 14.183 0.5 12.25V4.25C0.5 2.317 2.067 0.75 4 0.75H12.25C12.3881 0.75 12.5 0.861929 12.5 1C12.5 1.13807 12.3881 1.25 12.25 1.25H4C2.34315 1.25 1 2.59315 1 4.25V12.25C1 12.7121 1.10482 13.1511 1.29245 13.5433ZM6.5 4.75C6.5 5.30228 6.05228 5.75 5.5 5.75C4.94772 5.75 4.5 5.30228 4.5 4.75C4.5 4.19772 4.94772 3.75 5.5 3.75C6.05228 3.75 6.5 4.19772 6.5 4.75Z" fill="#363538" stroke="black" stroke-linecap="round" stroke-linejoin="round"/>
</svg>
