<svg width="24" height="24" viewBox="0 0 24 24" fill="none" xmlns="http://www.w3.org/2000/svg">
<path fill-rule="evenodd" clip-rule="evenodd" d="M9.70584 5.25337L9.70735 5.24943C9.70984 5.24304 9.71495 5.23024 9.72287 5.21194C9.73876 5.17523 9.7656 5.11721 9.80475 5.045C9.88375 4.8993 10.0086 4.70367 10.1884 4.50938C10.5378 4.13184 11.0983 3.75 11.9999 3.75C12.9015 3.75 13.4621 4.13184 13.8114 4.50938C13.9912 4.70367 14.1161 4.8993 14.1951 5.045C14.2343 5.11721 14.2611 5.17523 14.277 5.21194C14.2849 5.23024 14.29 5.24304 14.2925 5.24943L14.294 5.25337C14.4331 5.64088 14.859 5.84421 15.2481 5.70774C15.639 5.57067 15.8448 5.14269 15.7077 4.75181L14.9999 5C15.7077 4.75181 15.7078 4.75218 15.7077 4.75181L15.7071 4.7503L15.7065 4.7486L15.7051 4.74464L15.7014 4.73449L15.6905 4.70565C15.6816 4.68274 15.6694 4.65258 15.6536 4.61618C15.6222 4.54352 15.5763 4.44529 15.5137 4.33C15.3894 4.1007 15.1953 3.79633 14.9124 3.49062C14.3364 2.86816 13.397 2.25 11.9999 2.25C10.6029 2.25 9.66344 2.86816 9.08746 3.49062C8.80457 3.79633 8.61046 4.1007 8.48612 4.33C8.42361 4.44529 8.3777 4.54352 8.34625 4.61618C8.3305 4.65258 8.3183 4.68274 8.30939 4.70565C8.30494 4.7171 8.3013 4.72676 8.29844 4.73449L8.29474 4.74464L8.29332 4.7486L8.29272 4.7503C8.29259 4.75067 8.29219 4.75181 8.99994 5L8.29219 4.75181C8.15512 5.14269 8.36087 5.57067 8.75175 5.70774C9.14089 5.84421 9.56682 5.64087 9.70584 5.25337Z" fill="#363538"/>
<path fill-rule="evenodd" clip-rule="evenodd" d="M15.1253 7.57521C18.7884 7.37171 21.9625 10.0879 22.3275 13.7384L22.4768 15.2311C22.67 17.163 21.65 19.0135 19.9135 19.8818C18.7181 20.4795 17.3241 20.5374 16.0832 20.0411L13.6499 19.0677C13.1251 18.8578 12.5651 18.75 11.9999 18.75C11.4348 18.75 10.8748 18.8578 10.35 19.0677L7.91669 20.0411C6.67577 20.5374 5.28181 20.4795 4.08639 19.8818C2.34983 19.0135 1.3299 17.163 1.52309 15.2311L1.67236 13.7384C2.03741 10.0879 5.21149 7.37171 8.87452 7.57521L11.9999 7.74884L15.1253 7.57521ZM4.75721 18.5401C5.5694 18.9462 6.51649 18.9856 7.35961 18.6484L9.79292 17.675C10.4949 17.3943 11.2439 17.25 11.9999 17.25C12.7559 17.25 13.505 17.3943 14.207 17.675L16.6403 18.6484C17.4834 18.9856 18.4305 18.9462 19.2427 18.5401C20.4225 17.9502 21.1155 16.6929 20.9842 15.3803L20.835 13.8876C20.5498 11.0358 18.0702 8.91392 15.2086 9.0729L12.0415 9.24885C12.0138 9.25038 11.986 9.25038 11.9583 9.24885L8.79132 9.0729C5.92972 8.91392 3.45009 11.0358 3.16491 13.8876L3.01564 15.3803C2.88439 16.6929 3.57735 17.9502 4.75721 18.5401Z" fill="#363538"/>
<path d="M11.3693 6.20933C11.4873 6.08179 11.6729 5.94995 11.9998 5.94995C12.3267 5.94995 12.5123 6.08179 12.6303 6.20933C12.9116 6.51336 13.3861 6.53176 13.6902 6.25043C13.9942 5.96911 14.0126 5.49459 13.7313 5.19057C13.3866 4.81811 12.8222 4.44995 11.9998 4.44995C11.1774 4.44995 10.613 4.81811 10.2683 5.19057C9.98698 5.49459 10.0054 5.96911 10.3094 6.25043C10.6134 6.53176 11.0879 6.51336 11.3693 6.20933Z" fill="#363538"/>
</svg>
