<svg width="24" height="24" viewBox="0 0 24 24" fill="none" xmlns="http://www.w3.org/2000/svg">
<path fill-rule="evenodd" clip-rule="evenodd" d="M5.1402 5.32444L6.12438 6.89913C6.34945 7.25924 6.32253 7.72223 6.05725 8.05383L3.20191 11.623C2.82821 12.0901 2.9455 12.7787 3.45278 13.0957L6.12529 14.766C6.36402 14.9152 6.5288 15.1582 6.57916 15.4351L7.24485 19.0964C7.36895 19.779 8.13336 20.1309 8.73259 19.7813L13.2079 17.1707C13.3974 17.0602 13.6181 17.015 13.8358 17.0422L19.9256 17.8035C20.6557 17.8947 21.231 17.1929 20.9983 16.495L20.1002 13.8006C20.0351 13.6052 20.0319 13.3944 20.0911 13.197L21.2373 9.37639C21.3861 8.88041 21.1316 8.35288 20.6508 8.16056L16.9903 6.69637C16.6836 6.57367 16.4572 6.30736 16.3856 5.98483L15.7907 3.30816C15.6457 2.65548 14.9134 2.32623 14.3289 2.65093L11.2942 4.33691C11.1034 4.4429 10.8831 4.48357 10.6671 4.4527L6.12962 3.80449C5.28763 3.68421 4.68941 4.60319 5.1402 5.32444ZM9.50049 8.74396V10.4528C9.50049 10.4838 9.49326 10.5145 9.47937 10.5422L8.57945 12.3421C8.53434 12.4323 8.56347 12.542 8.64739 12.5979L9.91143 13.4406C9.96707 13.4777 10.0005 13.5402 10.0005 13.607V14.7225C10.0005 14.859 10.1342 14.9554 10.2637 14.9123L12.9534 14.0157C12.9843 14.0054 13.0173 14.0028 13.0495 14.0082L15.7147 14.4524C15.8527 14.4754 15.9711 14.3531 15.9437 14.2159L15.5167 12.0812C15.5063 12.0292 15.517 11.9752 15.5464 11.9311L16.2932 10.8109C16.3818 10.678 16.2865 10.5 16.1268 10.5H14.6241C14.5483 10.5 14.4791 10.4572 14.4452 10.3894L13.5781 8.65515C13.5336 8.56612 13.4304 8.52338 13.3359 8.55485L12.0509 8.9832C12.0179 8.99421 11.9825 8.99641 11.9484 8.98958L9.73971 8.54784C9.61595 8.52309 9.50049 8.61775 9.50049 8.74396Z" fill="#363538"/>
</svg>
