<svg width="24" height="24" viewBox="0 0 24 24" fill="none" xmlns="http://www.w3.org/2000/svg">
<path d="M3 4C2.44772 4 2 4.44772 2 5C2 5.55228 2.44772 6 3 6H21C21.5523 6 22 5.55228 22 5C22 4.44772 21.5523 4 21 4H3ZM3 11C2.44772 11 2 11.4477 2 12C2 12.5523 2.44772 13 3 13H13C13.5523 13 14 12.5523 14 12C14 11.4477 13.5523 11 13 11H3ZM3 18C2.44772 18 2 18.4477 2 19C2 19.5523 2.44772 20 3 20H7C7.55228 20 8 19.5523 8 19C8 18.4477 7.55228 18 7 18H3Z" fill="black" stroke="black" stroke-width="0.5" stroke-linecap="round"/>
</svg>
