<svg width="24" height="24" viewBox="0 0 24 24" fill="none" xmlns="http://www.w3.org/2000/svg">
<path d="M7 3.75C5.20507 3.75 3.75 5.20507 3.75 7C3.75 7.41421 3.41421 7.75 3 7.75C2.58579 7.75 2.25 7.41421 2.25 7C2.25 4.37665 4.37665 2.25 7 2.25C7.41421 2.25 7.75 2.58579 7.75 3C7.75 3.41421 7.41421 3.75 7 3.75Z" fill="#363538"/>
<path d="M8.4 10.4001C9.06274 10.4001 9.6 9.86284 9.6 9.2001C9.6 8.53736 9.06274 8.0001 8.4 8.0001C7.73726 8.0001 7.2 8.53736 7.2 9.2001C7.2 9.86284 7.73726 10.4001 8.4 10.4001Z" fill="#363538"/>
<path fill-rule="evenodd" clip-rule="evenodd" d="M5.59226 17.6296C5.50594 17.5737 5.43493 17.503 5.3804 17.423C4.5348 16.6896 4 15.6073 4 14.4001V9.6001C4 7.39096 5.79086 5.6001 8 5.6001H16C18.2091 5.6001 20 7.39096 20 9.6001V14.4001C20 15.6074 19.4651 16.6898 18.6194 17.4232C18.5515 17.5229 18.4585 17.6075 18.3437 17.6667C18.3135 17.6823 18.2826 17.6956 18.2514 17.7068C17.6101 18.1443 16.8349 18.4001 16 18.4001H8C7.1652 18.4001 6.39012 18.1444 5.74884 17.707C5.69493 17.6878 5.64239 17.662 5.59226 17.6296ZM16 7.1001H8C6.61929 7.1001 5.5 8.21939 5.5 9.6001V14.4001C5.5 14.9041 5.64917 15.3734 5.90577 15.766L7.2656 13.6666C8.07239 12.421 9.91993 12.4987 10.6194 13.8076C10.8037 14.1526 11.3105 14.1126 11.4386 13.743L12.2795 11.315C12.8294 9.72733 15.0134 9.57129 15.7834 11.0647L18.1561 15.6663C18.3746 15.2949 18.5 14.8622 18.5 14.4001V9.6001C18.5 8.21939 17.3807 7.1001 16 7.1001ZM16 16.9001C16.3547 16.9001 16.6922 16.8262 16.9978 16.693L14.4502 11.7521C14.2846 11.4311 13.8151 11.4646 13.6969 11.8059L12.856 14.2339C12.2997 15.8399 10.0975 16.0136 9.29641 14.5145C9.13544 14.2133 8.71024 14.1954 8.52457 14.4821L7.07326 16.7227C7.35984 16.8372 7.67257 16.9001 8 16.9001H16Z" fill="#363538"/>
<path d="M17 2.25C16.5858 2.25 16.25 2.58579 16.25 3C16.25 3.41421 16.5858 3.75 17 3.75C18.7949 3.75 20.25 5.20507 20.25 7C20.25 7.41421 20.5858 7.75 21 7.75C21.4142 7.75 21.75 7.41421 21.75 7C21.75 4.37665 19.6234 2.25 17 2.25Z" fill="#363538"/>
<path d="M21 16.25C21.4142 16.25 21.75 16.5858 21.75 17C21.75 19.6234 19.6234 21.75 17 21.75C16.5858 21.75 16.25 21.4142 16.25 21C16.25 20.5858 16.5858 20.25 17 20.25C18.7949 20.25 20.25 18.7949 20.25 17C20.25 16.5858 20.5858 16.25 21 16.25Z" fill="#363538"/>
<path d="M3.75 17C3.75 16.5858 3.41421 16.25 3 16.25C2.58579 16.25 2.25 16.5858 2.25 17C2.25 19.6234 4.37665 21.75 7 21.75C7.41421 21.75 7.75 21.4142 7.75 21C7.75 20.5858 7.41421 20.25 7 20.25C5.20507 20.25 3.75 18.7949 3.75 17Z" fill="#363538"/>
</svg>
