<svg width="24" height="24" viewBox="0 0 24 24" fill="none" xmlns="http://www.w3.org/2000/svg">
<mask id="mask0_33437_4829" style="mask-type:luminance" maskUnits="userSpaceOnUse" x="2" y="8" width="20" height="15">
<path fill-rule="evenodd" clip-rule="evenodd" d="M2.00043 8.79407H22V22.5381H2.00043V8.79407Z" fill="white"/>
</mask>
<g mask="url(#mask0_33437_4829)">
<path fill-rule="evenodd" clip-rule="evenodd" d="M17.5654 22.5381H6.43543C3.99043 22.5381 2.00043 20.5491 2.00043 18.1031V13.2281C2.00043 10.7831 3.99043 8.79407 6.43543 8.79407H7.36843C7.78243 8.79407 8.11843 9.13007 8.11843 9.54407C8.11843 9.95807 7.78243 10.2941 7.36843 10.2941H6.43543C4.81643 10.2941 3.50043 11.6101 3.50043 13.2281V18.1031C3.50043 19.7221 4.81643 21.0381 6.43543 21.0381H17.5654C19.1834 21.0381 20.5004 19.7221 20.5004 18.1031V13.2191C20.5004 11.6061 19.1884 10.2941 17.5764 10.2941H16.6334C16.2194 10.2941 15.8834 9.95807 15.8834 9.54407C15.8834 9.13007 16.2194 8.79407 16.6334 8.79407H17.5764C20.0154 8.79407 22.0004 10.7791 22.0004 13.2191V18.1031C22.0004 20.5491 20.0104 22.5381 17.5654 22.5381Z" fill="black"/>
</g>
<mask id="mask1_33437_4829" style="mask-type:luminance" maskUnits="userSpaceOnUse" x="11" y="2" width="2" height="14">
<path fill-rule="evenodd" clip-rule="evenodd" d="M11.25 2.00012H12.75V15.541H11.25V2.00012Z" fill="white"/>
</mask>
<g mask="url(#mask1_33437_4829)">
<path fill-rule="evenodd" clip-rule="evenodd" d="M12 15.541C11.586 15.541 11.25 15.205 11.25 14.791V2.75C11.25 2.336 11.586 2 12 2C12.414 2 12.75 2.336 12.75 2.75V14.791C12.75 15.205 12.414 15.541 12 15.541Z" fill="black"/>
</g>
<path fill-rule="evenodd" clip-rule="evenodd" d="M9.08502 6.42871C8.89402 6.42871 8.70202 6.35571 8.55602 6.20971C8.26302 5.91771 8.26102 5.44371 8.55402 5.14971L11.469 2.22171C11.75 1.93871 12.25 1.93871 12.531 2.22171L15.447 5.14971C15.739 5.44371 15.738 5.91771 15.445 6.20971C15.151 6.50171 14.677 6.50171 14.385 6.20771L12 3.81371L9.61602 6.20771C9.47002 6.35571 9.27702 6.42871 9.08502 6.42871Z" fill="black"/>
</svg>
