<svg width="24" height="24" viewBox="0 0 24 24" fill="none" xmlns="http://www.w3.org/2000/svg">
<path fill-rule="evenodd" clip-rule="evenodd" d="M4.74982 1.99986L5.24982 1.99986C6.59785 1.99985 7.71934 2.96978 7.95448 4.24983L16.0452 4.24984C16.2803 2.96979 17.4018 1.99986 18.7498 1.99986L19.2498 1.99986C20.7686 1.99985 21.9998 3.23107 21.9998 4.74986V5.24981C21.9998 6.59778 21.03 7.71923 19.75 7.95443V16.0455C21.03 16.2807 21.9998 17.4021 21.9998 18.7501V19.2498C21.9998 20.7686 20.7686 21.9998 19.2498 21.9998L18.7498 21.9998C17.4018 21.9998 16.2804 21.0299 16.0452 19.7499L7.95446 19.75C7.71927 21.0299 6.59781 21.9998 5.24982 21.9998L4.74982 21.9998C3.23104 21.9998 1.99983 20.7686 1.99983 19.2498V18.7501C1.99983 17.402 2.96986 16.2805 4.25001 16.0454L4.25001 7.9545C2.96986 7.71944 1.99983 6.5979 1.99983 5.24981V4.74986C1.99983 3.23108 3.23104 1.99986 4.74982 1.99986ZM5.75001 7.95443L5.75001 16.0455C6.8678 16.2509 7.74908 17.1322 7.95446 18.25L16.0452 18.2499C16.2506 17.132 17.1321 16.2507 18.25 16.0454V7.9545C17.132 7.74921 16.2505 6.8678 16.0452 5.74984L7.95448 5.74983C7.74914 6.86768 6.86784 7.74903 5.75001 7.95443ZM5.24983 3.49986L4.74983 3.49986C4.05947 3.49986 3.49983 4.0595 3.49983 4.74986V5.24981C3.49983 5.94016 4.05948 6.49981 4.74983 6.49981H5.24983C5.94019 6.49981 6.49983 5.94016 6.49983 5.24981V4.74985C6.49983 4.0595 5.94019 3.49985 5.24983 3.49986ZM19.2498 3.49986L18.7498 3.49986C18.0595 3.49986 17.4998 4.0595 17.4998 4.74986V5.24981C17.4998 5.94016 18.0595 6.49981 18.7498 6.49981H19.2498C19.9402 6.49981 20.4998 5.94016 20.4998 5.24981V4.74986C20.4998 4.0595 19.9402 3.49985 19.2498 3.49986ZM4.74983 17.5001C4.05948 17.5001 3.49983 18.0597 3.49983 18.7501V19.2498C3.49983 19.9402 4.05947 20.4998 4.74983 20.4998L5.24983 20.4998C5.94019 20.4998 6.49983 19.9402 6.49983 19.2498V18.7501C6.49983 18.0597 5.94019 17.5001 5.24983 17.5001H4.74983ZM18.7498 17.5001C18.0595 17.5001 17.4998 18.0597 17.4998 18.7501V19.2498C17.4998 19.9402 18.0595 20.4998 18.7498 20.4998L19.2498 20.4998C19.9402 20.4998 20.4998 19.9402 20.4998 19.2498V18.7501C20.4998 18.0597 19.9402 17.5001 19.2498 17.5001H18.7498Z" fill="#363538"/>
</svg>
