<svg width="245" height="226" viewBox="0 0 245 226" fill="none" xmlns="http://www.w3.org/2000/svg">
<ellipse cx="120.5" cy="121.5" rx="86.5" ry="87.5" fill="#C464FF"/>
<circle cx="26.5" cy="18.5" r="18.5" fill="#C464FF"/>
<circle cx="235" cy="54" r="10" fill="#C464FF"/>
<circle cx="139.5" cy="7.5" r="5.5" fill="#C464FF"/>
<circle cx="7.5" cy="146.5" r="7.5" fill="#C464FF"/>
<circle cx="2.5" cy="2.5" r="2.5" transform="matrix(-1 0 0 1 11 75)" fill="#C464FF"/>
<circle cx="2.5" cy="2.5" r="2.5" transform="matrix(-1 0 0 1 170 209)" fill="#C464FF"/>
<circle cx="56" cy="221" r="5" fill="#C464FF"/>
<circle cx="236" cy="178" r="5" fill="#C464FF"/>
<circle cx="219" cy="118" r="4" fill="#C464FF"/>
<rect x="88" y="89" width="65" height="65" rx="12" fill="white"/>
<rect width="18.6174" height="5.28539" rx="2.64269" transform="matrix(0.720879 0.693061 -0.690919 0.722932 105.652 117.397)" fill="#C464FF"/>
<rect width="33.6224" height="5.28509" rx="2.64255" transform="matrix(0.70768 -0.706533 0.704429 0.709775 112.072 130.755)" fill="#C464FF"/>
</svg>
