<svg width="24" height="24" viewBox="0 0 24 24" fill="none" xmlns="http://www.w3.org/2000/svg">
<path d="M10.3218 3.00395C7.14569 3.85617 4.80714 6.75498 4.80714 10.2003V11.5C4.80714 13.2253 4.26764 15.4061 3.73768 17.1273C3.27479 18.6306 4.36681 20.25 5.96661 20.25H9.76393C9.78737 20.4596 9.84022 20.6654 9.92127 20.861C10.0343 21.134 10.2001 21.3821 10.409 21.591C10.6179 21.7999 10.866 21.9657 11.139 22.0787C11.4119 22.1918 11.7045 22.25 12 22.25C12.2955 22.25 12.5881 22.1918 12.861 22.0787C13.134 21.9657 13.3821 21.7999 13.591 21.591C13.7999 21.3821 13.9657 21.134 14.0787 20.861C14.1598 20.6654 14.2126 20.4596 14.2361 20.25H18.3094C19.8202 20.25 20.9015 18.7947 20.5605 17.3418C20.1482 15.5854 19.7071 13.2853 19.7071 11.5V10.2003C19.7071 6.55661 17.0915 3.52398 13.6355 2.87731C13.6295 2.86156 13.6232 2.84589 13.6168 2.8303C13.5288 2.61798 13.3999 2.42507 13.2374 2.26256C13.0749 2.10006 12.882 1.97116 12.6697 1.88321C12.4574 1.79526 12.2298 1.75 12 1.75C11.7702 1.75 11.5426 1.79527 11.3303 1.88321C11.118 1.97116 10.9251 2.10006 10.7626 2.26256C10.6001 2.42507 10.4712 2.61798 10.3832 2.8303C10.3597 2.88718 10.3392 2.94514 10.3218 3.00395ZM5.71545 18.1031L5.51085 18.2468L5.71545 18.1031C5.63316 17.9859 5.60983 17.8434 5.64912 17.7158C6.18748 15.9674 6.80714 13.5439 6.80714 11.5V10.2003C6.80714 7.19028 9.2473 4.75 12.2571 4.75C15.267 4.75 17.7071 7.19028 17.7071 10.2003V11.5C17.7071 13.532 18.1967 16.0234 18.6134 17.7988C18.6744 18.0587 18.468 18.25 18.3094 18.25H5.96661C5.88213 18.25 5.79283 18.2133 5.71545 18.1031Z" fill="black" stroke="black" stroke-width="0.5"/>
</svg>
