<svg width="24" height="24" viewBox="0 0 24 24" fill="none" xmlns="http://www.w3.org/2000/svg">
<mask id="mask0_1673_114" style="mask-type:luminance" maskUnits="userSpaceOnUse" x="1" y="1" width="21" height="21">
<path d="M2 1.75H1.75V2V21.477V21.727H2H21.4768H21.7268V21.477V2V1.75H21.4768H2Z" fill="white" stroke="white" stroke-width="0.5"/>
</mask>
<g mask="url(#mask0_1673_114)">
<mask id="path-2-outside-1_1673_114" maskUnits="userSpaceOnUse" x="0.999817" y="1" width="21" height="21" fill="black">
<rect fill="white" x="0.999817" y="1" width="21" height="21"/>
<path fill-rule="evenodd" clip-rule="evenodd" d="M11.7388 3.5C7.19582 3.5 3.49982 7.195 3.49982 11.738C3.49982 16.281 7.19582 19.977 11.7388 19.977C16.2808 19.977 19.9768 16.281 19.9768 11.738C19.9768 7.195 16.2808 3.5 11.7388 3.5M11.7388 21.477C6.36882 21.477 1.99982 17.108 1.99982 11.738C1.99982 6.368 6.36882 2 11.7388 2C17.1088 2 21.4768 6.368 21.4768 11.738C21.4768 17.108 17.1088 21.477 11.7388 21.477"/>
</mask>
<path fill-rule="evenodd" clip-rule="evenodd" d="M11.7388 3.5C7.19582 3.5 3.49982 7.195 3.49982 11.738C3.49982 16.281 7.19582 19.977 11.7388 19.977C16.2808 19.977 19.9768 16.281 19.9768 11.738C19.9768 7.195 16.2808 3.5 11.7388 3.5M11.7388 21.477C6.36882 21.477 1.99982 17.108 1.99982 11.738C1.99982 6.368 6.36882 2 11.7388 2C17.1088 2 21.4768 6.368 21.4768 11.738C21.4768 17.108 17.1088 21.477 11.7388 21.477" fill="black"/>
<path d="M11.7388 3C6.91975 3 2.99982 6.91878 2.99982 11.738H3.99982C3.99982 7.47122 7.47188 4 11.7388 4V3ZM2.99982 11.738C2.99982 16.5571 6.91967 20.477 11.7388 20.477V19.477C7.47196 19.477 3.99982 16.0049 3.99982 11.738H2.99982ZM11.7388 20.477C16.557 20.477 20.4768 16.5571 20.4768 11.738H19.4768C19.4768 16.0049 16.0046 19.477 11.7388 19.477V20.477ZM20.4768 11.738C20.4768 6.91882 16.5569 3 11.7388 3V4C16.0047 4 19.4768 7.47118 19.4768 11.738H20.4768ZM11.7388 20.977C6.64496 20.977 2.49982 16.8319 2.49982 11.738H1.49982C1.49982 17.3841 6.09268 21.977 11.7388 21.977V20.977ZM2.49982 11.738C2.49982 6.64421 6.64489 2.5 11.7388 2.5V1.5C6.09274 1.5 1.49982 6.09179 1.49982 11.738H2.49982ZM11.7388 2.5C16.8327 2.5 20.9768 6.64414 20.9768 11.738H21.9768C21.9768 6.09186 17.385 1.5 11.7388 1.5V2.5ZM20.9768 11.738C20.9768 16.8319 16.8326 20.977 11.7388 20.977V21.977C17.385 21.977 21.9768 17.3841 21.9768 11.738H20.9768Z" fill="black" mask="url(#path-2-outside-1_1673_114)"/>
</g>
<mask id="mask1_1673_114" style="mask-type:luminance" maskUnits="userSpaceOnUse" x="16" y="17" width="7" height="7">
<path d="M17.2399 17.4569H16.9899V17.7069V22.7217V22.9717H17.2399H22.264H22.514V22.7217V17.7069V17.4569H22.264H17.2399Z" fill="white" stroke="white" stroke-width="0.5"/>
</mask>
<g mask="url(#mask1_1673_114)">
<mask id="path-5-outside-2_1673_114" maskUnits="userSpaceOnUse" x="16.2399" y="16.7069" width="7" height="7" fill="black">
<rect fill="white" x="16.2399" y="16.7069" width="7" height="7"/>
<path fill-rule="evenodd" clip-rule="evenodd" d="M21.5142 22.7217C21.3232 22.7217 21.1312 22.6487 20.9842 22.5027L17.4602 18.9887C17.1672 18.6957 17.1662 18.2207 17.4592 17.9277C17.7512 17.6327 18.2262 17.6347 18.5202 17.9257L22.0442 21.4407C22.3372 21.7337 22.3382 22.2077 22.0452 22.5007C21.8992 22.6487 21.7062 22.7217 21.5142 22.7217"/>
</mask>
<path fill-rule="evenodd" clip-rule="evenodd" d="M21.5142 22.7217C21.3232 22.7217 21.1312 22.6487 20.9842 22.5027L17.4602 18.9887C17.1672 18.6957 17.1662 18.2207 17.4592 17.9277C17.7512 17.6327 18.2262 17.6347 18.5202 17.9257L22.0442 21.4407C22.3372 21.7337 22.3382 22.2077 22.0452 22.5007C21.8992 22.6487 21.7062 22.7217 21.5142 22.7217" fill="black"/>
<path d="M20.9842 22.5027L20.6311 22.8567L20.6318 22.8574L20.9842 22.5027ZM17.4602 18.9887L17.1066 19.3422L17.1071 19.3427L17.4602 18.9887ZM17.4592 17.9277L17.8127 18.2812L17.8145 18.2794L17.4592 17.9277ZM18.5202 17.9257L18.8733 17.5717L18.8719 17.5703L18.5202 17.9257ZM22.0442 21.4407L22.3977 21.0871L22.3973 21.0867L22.0442 21.4407ZM22.0452 22.5007L21.6916 22.1471L21.6892 22.1495L22.0452 22.5007ZM21.5142 22.2217C21.4503 22.2217 21.3865 22.1975 21.3365 22.1479L20.6318 22.8574C20.8759 23.0998 21.196 23.2217 21.5142 23.2217V22.2217ZM21.3372 22.1486L17.8132 18.6346L17.1071 19.3427L20.6311 22.8567L21.3372 22.1486ZM17.8137 18.6351C17.7151 18.5365 17.7159 18.3781 17.8127 18.2812L17.1056 17.5741C16.6165 18.0632 16.6192 18.8548 17.1066 19.3422L17.8137 18.6351ZM17.8145 18.2794C17.9089 18.1841 18.0673 18.1809 18.1684 18.281L18.8719 17.5703C18.3851 17.0884 17.5935 17.0812 17.1038 17.5759L17.8145 18.2794ZM18.1671 18.2797L21.6911 21.7947L22.3973 21.0867L18.8733 17.5717L18.1671 18.2797ZM21.6906 21.7942C21.7892 21.8928 21.7885 22.0502 21.6916 22.1471L22.3987 22.8542C22.8879 22.3651 22.8851 21.5745 22.3977 21.0871L21.6906 21.7942ZM21.6892 22.1495C21.6424 22.197 21.58 22.2217 21.5142 22.2217V23.2217C21.8324 23.2217 22.156 23.1003 22.4011 22.8518L21.6892 22.1495Z" fill="black" mask="url(#path-5-outside-2_1673_114)"/>
</g>
</svg>
