<svg width="24" height="24" viewBox="0 0 24 24" fill="none" xmlns="http://www.w3.org/2000/svg">
<path d="M5.41087 11.6226C5.43086 7.54823 8.74414 4.25 12.8303 4.25C16.9288 4.25 20.2498 7.56826 20.2498 11.6596C20.2498 12.0738 20.5856 12.4096 20.9998 12.4096C21.414 12.4096 21.7498 12.0738 21.7498 11.6596C21.7498 6.73812 17.7556 2.75 12.8303 2.75C7.90504 2.75 3.91078 6.73812 3.91078 11.6596V11.6976L4.24764 15.0161C4.2454 15.0375 4.24117 15.0699 4.23326 15.1116C4.2136 15.2154 4.17153 15.3752 4.08192 15.5658C3.90703 15.9378 3.5343 16.4639 2.71264 16.9253C2.52049 17.0332 2.31793 17.2207 2.22847 17.5098C2.13914 17.7984 2.19963 18.0686 2.29711 18.2693C2.47477 18.6352 2.83568 18.9126 3.21315 19.1242C4.00678 19.5691 5.35449 19.9859 7.38495 20.2415L8.86348 20.5148C9.27079 20.5901 9.66202 20.3209 9.73731 19.9136C9.8126 19.5063 9.54345 19.1151 9.13613 19.0398L7.61463 18.7585L7.59288 18.7558C5.7284 18.5227 4.60972 18.1623 4.02937 17.8604C4.76399 17.3245 5.19366 16.7266 5.43937 16.204C5.5895 15.8847 5.66704 15.602 5.70705 15.3908C5.72706 15.2852 5.73776 15.1971 5.74345 15.1306C5.74631 15.0974 5.74791 15.0694 5.7488 15.0473C5.74925 15.0363 5.74952 15.0267 5.74967 15.0186L5.74982 15.0076L5.74985 15.003L5.74986 15.0009V14.9989L5.7498 14.9615L5.41087 11.6226Z" fill="#363538"/>
<path d="M13.3 16.5C13.3 16.9142 12.9643 17.25 12.55 17.25C12.1358 17.25 11.8 16.9142 11.8 16.5C11.8 16.0858 12.1358 15.75 12.55 15.75C12.9643 15.75 13.3 16.0858 13.3 16.5Z" fill="#363538"/>
<path d="M15.8 16.5C15.8 16.9142 15.4643 17.25 15.05 17.25C14.6358 17.25 14.3 16.9142 14.3 16.5C14.3 16.0858 14.6358 15.75 15.05 15.75C15.4643 15.75 15.8 16.0858 15.8 16.5Z" fill="#363538"/>
<path d="M17.55 17.25C17.9643 17.25 18.3 16.9142 18.3 16.5C18.3 16.0858 17.9643 15.75 17.55 15.75C17.1358 15.75 16.8 16.0858 16.8 16.5C16.8 16.9142 17.1358 17.25 17.55 17.25Z" fill="#363538"/>
<path fill-rule="evenodd" clip-rule="evenodd" d="M20.4188 17.7682L20.6147 15.8377V15.7998C20.6147 12.7339 18.1266 10.25 15.0591 10.25C11.9917 10.25 9.50354 12.7339 9.50354 15.7998V15.9979C9.50354 19.9586 13.4183 22.7306 17.1581 21.4233L17.5054 21.3019L18.3097 21.1532C19.517 21.0005 20.3519 20.749 20.8673 20.4601C21.1058 20.3264 21.3864 20.1245 21.5329 19.8227C21.6148 19.6541 21.672 19.4132 21.5905 19.1498C21.5089 18.8859 21.3252 18.7197 21.1619 18.628C20.736 18.3888 20.5609 18.1281 20.4847 17.9661C20.4445 17.8805 20.427 17.8118 20.4196 17.7729L20.4188 17.7682ZM19.1146 15.7634L18.9153 17.7262L18.9153 17.7637L19.6653 17.7647C18.9153 17.7637 18.9153 17.7637 18.9153 17.7637V17.7656L18.9153 17.7676L18.9153 17.7719L18.9154 17.7815L18.9161 17.805C18.9169 17.8225 18.9181 17.8435 18.9202 17.8679C18.9243 17.9166 18.932 17.9789 18.9459 18.0521C18.9736 18.1984 19.0265 18.39 19.1273 18.6044C19.24 18.8441 19.4077 19.1017 19.6521 19.3508C19.3033 19.4637 18.7992 19.5804 18.1017 19.6676L18.0799 19.6703L17.1193 19.8478L16.6631 20.0073C13.896 20.9746 11.0035 18.9229 11.0035 15.9979V15.7998C11.0035 13.564 12.8184 11.75 15.0591 11.75C17.2877 11.75 19.095 13.5444 19.1146 15.7634Z" fill="#363538"/>
</svg>
